<svg id="icons8-bulleted-list_1_" data-name="icons8-bulleted-list (1)" xmlns="http://www.w3.org/2000/svg" width="26.734" height="22" viewBox="0 0 26.734 22">
  <path id="Path_450" data-name="Path 450" d="M12,8H32.318M12,16.861H32.318M12,25.723H32.318" transform="translate(-5.584 -5.861)" fill="none" stroke="#fff" stroke-linejoin="round" stroke-miterlimit="10" stroke-width="2"/>
  <path id="Path_451" data-name="Path 451" d="M2.139,8.19a2.1,2.1,0,1,1,0-4.19,2.1,2.1,0,1,1,0,4.19Zm0,8.9a2.1,2.1,0,1,1,0-4.19,2.1,2.1,0,1,1,0,4.19Zm0,8.9a2.1,2.1,0,1,1,0-4.19,2.1,2.1,0,1,1,0,4.19Z" transform="translate(0 -4)" fill="#fff"/>
</svg>
