<svg id="Layer_1" data-name="Layer 1" xmlns="http://www.w3.org/2000/svg" viewBox="0 0 759.04 115.61"><defs><style>.cls-1{fill:#fff;}.cls-2{fill:#4b318d;}</style></defs><path class="cls-1" d="M180.21,325.28A34.67,34.67,0,1,0,214.87,360,34.67,34.67,0,0,0,180.21,325.28Zm16.89,37.37-11.86,6.86-11.87,6.85a3.13,3.13,0,0,1-4.69-2.71V346.24a3.12,3.12,0,0,1,4.69-2.7l11.87,6.85,11.86,6.85A3.12,3.12,0,0,1,197.1,362.65Z" transform="translate(-20.48 -304.15)"/><polygon class="cls-1" points="155.34 63.51 166.9 55.8 155.34 48.09 155.34 63.51"/><path class="cls-1" d="M86,365.93a29.93,29.93,0,0,1-10.81,19.14,32.69,32.69,0,0,1-21.39,7.34q-14.41,0-23.86-9.51t-9.45-24.06q0-14.54,9.45-24t23.86-9.51a32.68,32.68,0,0,1,21.39,7.33A29.93,29.93,0,0,1,86,351.76H66.6a11.27,11.27,0,0,0-4.85-6,14.73,14.73,0,0,0-8.08-2.3,13.34,13.34,0,0,0-10.19,4.41,16.78,16.78,0,0,0,0,22,13.32,13.32,0,0,0,10.19,4.42,14.73,14.73,0,0,0,8.08-2.3,11.31,11.31,0,0,0,4.85-6Z" transform="translate(-20.48 -304.15)"/><path class="cls-1" d="M130.87,326.52h7.95v18.4h-7.95a14,14,0,0,0-10.94,4.54,16.47,16.47,0,0,0-4.1,11.5v30.2H97.18V361Q97.18,326.52,130.87,326.52Z" transform="translate(-20.48 -304.15)"/><path class="cls-1" d="M289.49,365.93a29.9,29.9,0,0,1-10.82,19.14,32.65,32.65,0,0,1-21.38,7.34q-14.42,0-23.87-9.51T224,358.84q0-14.54,9.44-24t23.87-9.51a32.64,32.64,0,0,1,21.38,7.33,29.9,29.9,0,0,1,10.82,19.15H270.1a11.27,11.27,0,0,0-4.85-6,14.76,14.76,0,0,0-8.08-2.3,13.38,13.38,0,0,0-10.2,4.41,16.81,16.81,0,0,0,0,22,13.35,13.35,0,0,0,10.2,4.42,14.76,14.76,0,0,0,8.08-2.3,11.31,11.31,0,0,0,4.85-6Z" transform="translate(-20.48 -304.15)"/><path class="cls-1" d="M356.68,383q-9.51,9.39-24.43,9.39T307.82,383q-9.51-9.37-9.51-24.18t9.51-24.18q9.51-9.37,24.43-9.38t24.43,9.38q9.51,9.39,9.51,24.18T356.68,383Zm-35.31-13.11a15.78,15.78,0,0,0,21.76,0,16.8,16.8,0,0,0,0-22.13,15.78,15.78,0,0,0-21.76,0,16.8,16.8,0,0,0,0,22.13Z" transform="translate(-20.48 -304.15)"/><path class="cls-2" d="M378.49,356q0-14.3,8.83-22.5t22.87-8.2q14.06,0,22.88,8.2t8.82,22.5v35.18H423.25v-34.8q0-6.09-3.67-9.51a14.59,14.59,0,0,0-18.77,0q-3.68,3.42-3.67,9.51v34.8H378.49Z" transform="translate(-20.48 -304.15)"/><path class="cls-2" d="M520.46,370.53q-3.36,11.19-12.06,16.53t-21,5.35q-14.55,0-23.87-9.45t-9.32-24.12q0-14.79,9.63-24.18t24.55-9.38q14.43,0,23.37,8.76t9,22.07a44.11,44.11,0,0,1-1,9.32H475a1.65,1.65,0,0,0-1.87,1.87c0,2.48,1.5,4.6,4.48,6.34a20.86,20.86,0,0,0,10.69,2.61q11.43,0,14.05-5.72Zm-21.7-27a17.37,17.37,0,0,0-10-2.67,18.63,18.63,0,0,0-10.38,2.79,12.61,12.61,0,0,0-5.53,7.77h28.21c1.08,0,1.62-.49,1.62-1.49C502.68,347.41,501.38,345.27,498.76,343.49Z" transform="translate(-20.48 -304.15)"/><path class="cls-2" d="M584.73,390.79a110.28,110.28,0,0,1-15.67,1q-12.18,0-18.71-6.59t-6.52-19.52V343.43H528.29V326.52h11.06c3,0,4.48-1.49,4.48-4.47v-17.9h18.64v22.37h22.26v16.91H562.47v20.26q0,5.34,2.43,7.65c1.61,1.53,4.29,2.3,8,2.3a98.83,98.83,0,0,0,11.81-.75Z" transform="translate(-20.48 -304.15)"/><path class="cls-1" d="M617.05,388.8a12.31,12.31,0,1,1,3.6-8.7A11.86,11.86,0,0,1,617.05,388.8Z" transform="translate(-20.48 -304.15)"/><path class="cls-1" d="M701.08,389.05q0,14.42-9.14,22.56t-24.18,8.15q-12.42,0-20.69-6.22t-11.13-17.4h20.14q2.73,6.45,11.68,6.46,6.84,0,10.76-3.48t3.91-10.07v-5.34q-6.82,6.82-17.52,6.83-13.68,0-22.94-9t-9.26-22.69q0-14.54,9.63-24t24.43-9.51q14.79,0,24.55,9.51t9.76,23.93ZM678,369.84a15.38,15.38,0,0,0,4.17-11,15,15,0,0,0-4.36-11A14.57,14.57,0,0,0,667,343.43a15.51,15.51,0,0,0-10.94,26.41,15.41,15.41,0,0,0,11.31,4.42A14,14,0,0,0,678,369.84Z" transform="translate(-20.48 -304.15)"/><path class="cls-1" d="M779.27,370.53q-3.35,11.19-12.06,16.53t-21,5.35q-14.55,0-23.87-9.45T713,358.84q0-14.79,9.64-24.18t24.55-9.38q14.41,0,23.37,8.76t8.95,22.07a44.1,44.1,0,0,1-1,9.32H733.77a1.65,1.65,0,0,0-1.86,1.87c0,2.48,1.49,4.6,4.47,6.34a20.9,20.9,0,0,0,10.7,2.61q11.43,0,14-5.72Zm-21.69-27a17.41,17.41,0,0,0-10-2.67,18.63,18.63,0,0,0-10.38,2.79,12.65,12.65,0,0,0-5.53,7.77h28.22c1.08,0,1.62-.49,1.62-1.49C761.5,347.41,760.19,345.27,757.58,343.49Z" transform="translate(-20.48 -304.15)"/></svg>