<svg xmlns="http://www.w3.org/2000/svg" width="18" height="18" viewBox="0 0 18 18">
  <path id="icons8-edit" d="M19.442,2.558a1.9,1.9,0,0,0-2.694,0l-.062.062s-.008,0-.011.008L2.9,16.4a.392.392,0,0,0-.1.175l-.786,2.93a.391.391,0,0,0,.479.479l2.93-.787a.394.394,0,0,0,.175-.1L19.372,5.326s.005-.01.009-.014l.06-.06A1.9,1.9,0,0,0,19.442,2.558Zm-.554.553a1.123,1.123,0,0,1,0,1.587l-.334.334L16.967,3.445l.334-.334a1.122,1.122,0,0,1,1.587,0ZM3.41,17.321l1.269,1.268-1.734.465Z" transform="translate(-2 -2)" fill="#d2d2d2"/>
</svg>
