<svg xmlns="http://www.w3.org/2000/svg" width="19" height="12.004" viewBox="0 0 19 12.004">
  <g id="icons8-eye_2_" data-name="icons8-eye (2)" transform="translate(0 -4.606)">
    <path id="Path_261" data-name="Path 261" d="M18.367,13.541a.785.785,0,1,0,.633.771A.712.712,0,0,0,18.367,13.541Zm-17.733,0a.785.785,0,0,0,0,1.541.785.785,0,0,0,0-1.541ZM9.5,12a2.136,2.136,0,0,0-1.9,2.312,2.136,2.136,0,0,0,1.9,2.312,2.136,2.136,0,0,0,1.9-2.312A2.136,2.136,0,0,0,9.5,12Z" transform="translate(0 -3.738)" fill="#fff"/>
    <path id="Path_262" data-name="Path 262" d="M18.89,10.647S15.224,5,9.537,5,.184,10.647.184,10.647l-.021.682S3.219,17,9.537,17s9.375-5.676,9.375-5.676ZM9.537,15.2A4.316,4.316,0,0,1,5.115,11,4.316,4.316,0,0,1,9.537,6.8,4.316,4.316,0,0,1,13.96,11,4.316,4.316,0,0,1,9.537,15.2Z" transform="translate(-0.037 -0.394)" fill="#fff"/>
  </g>
</svg>
