<svg xmlns="http://www.w3.org/2000/svg" width="10" height="18" viewBox="0 0 10 18">
  <path id="icons8-facebook-f" d="M19.692,5.522h1.923A.388.388,0,0,0,22,5.13V2.494a.388.388,0,0,0-.356-.39c-.612-.044-1.807-.1-2.667-.1-2.362,0-3.9,1.44-3.9,4.057v2.6H12.385A.388.388,0,0,0,12,9.043v2.739a.388.388,0,0,0,.385.391h2.692v7.435a.388.388,0,0,0,.385.391h2.692a.388.388,0,0,0,.385-.391V12.174h2.778a.387.387,0,0,0,.382-.348L22,9.087a.389.389,0,0,0-.382-.434H18.538V6.7A1.164,1.164,0,0,1,19.692,5.522Z" transform="translate(-12 -2)" fill="#fff"/>
</svg>
