<svg xmlns="http://www.w3.org/2000/svg" width="272" height="41.001" viewBox="0 0 272 41.001">
  <g id="without_gradient" data-name="without gradient" transform="translate(-4227.999 -2977.999)">
    <path id="Path_410" data-name="Path 410" d="M43.776,367.268a14.655,14.655,0,0,1-5.293,9.372,16,16,0,0,1-10.467,3.6,15.77,15.77,0,0,1-11.68-4.656,17.288,17.288,0,0,1,0-23.543,15.805,15.805,0,0,1,11.68-4.656,16,16,0,0,1,10.472,3.576,14.655,14.655,0,0,1,5.293,9.372h-9.5a5.569,5.569,0,0,0-2.373-2.959,7.212,7.212,0,0,0-3.946-1.125,6.546,6.546,0,0,0-4.992,2.16,8.223,8.223,0,0,0,0,10.768,6.546,6.546,0,0,0,4.982,2.185,7.212,7.212,0,0,0,3.946-1.125,5.554,5.554,0,0,0,2.373-2.959Z" transform="translate(4216.289 2638.756)" fill="#fff"/>
    <path id="Path_411" data-name="Path 411" d="M104.309,348.6H108.2v9h-3.892a6.866,6.866,0,0,0-5.357,2.22,8.094,8.094,0,0,0-2.008,5.628v14.8H87.82v-14.8Q87.82,348.6,104.309,348.6Z" transform="translate(4177.721 2638.139)" fill="#fff"/>
    <path id="Path_412" data-name="Path 412" d="M245.691,367.269a14.63,14.63,0,0,1-5.293,9.372,15.986,15.986,0,0,1-10.462,3.6,15.786,15.786,0,0,1-11.685-4.656,17.3,17.3,0,0,1,0-23.543,15.8,15.8,0,0,1,11.685-4.656,15.987,15.987,0,0,1,10.462,3.591,14.63,14.63,0,0,1,5.293,9.372H236.2a5.549,5.549,0,0,0-2.373-2.959,7.209,7.209,0,0,0-3.946-1.125,6.525,6.525,0,0,0-4.987,2.16,8.222,8.222,0,0,0,0,10.768,6.526,6.526,0,0,0,4.977,2.17,7.211,7.211,0,0,0,3.946-1.125,5.529,5.529,0,0,0,2.373-2.96Z" transform="translate(4112.264 2638.754)" fill="#fff"/>
    <path id="Path_413" data-name="Path 413" d="M315.954,375.633a17.833,17.833,0,0,1-23.908.015,17.376,17.376,0,0,1,0-23.676,17.854,17.854,0,0,1,23.908,0,17.357,17.357,0,0,1,0,23.661Zm-17.264-6.412a7.719,7.719,0,0,0,10.649,0,8.212,8.212,0,0,0,0-10.827,7.719,7.719,0,0,0-10.649,0A8.213,8.213,0,0,0,298.69,369.221Z" transform="translate(4074.254 2638.757)" fill="#fff"/>
    <path id="Path_414" data-name="Path 414" d="M367,362.389q0-7,4.316-11.014a17.62,17.62,0,0,1,22.394,0q4.321,4.015,4.316,11.014v17.219H388.9V362.572a6.1,6.1,0,0,0-1.8-4.656,7.142,7.142,0,0,0-9.184,0,6.05,6.05,0,0,0-1.8,4.656v17.037H367Z" transform="translate(4033.262 2638.766)" fill="#701ed7"/>
    <path id="Path_415" data-name="Path 415" d="M474.491,369.507a13.626,13.626,0,0,1-5.919,8.089,19.431,19.431,0,0,1-10.264,2.634,15.715,15.715,0,0,1-11.685-4.627,16.075,16.075,0,0,1-4.563-11.8,15.8,15.8,0,0,1,4.716-11.838A16.574,16.574,0,0,1,458.8,347.36a15.646,15.646,0,0,1,11.438,4.291,14.483,14.483,0,0,1,4.37,10.822,21.759,21.759,0,0,1-.493,4.563h-21.9a.809.809,0,0,0-.913.912q0,1.825,2.19,3.1a10.2,10.2,0,0,0,5.233,1.277q5.593,0,6.876-2.8Zm-10.62-13.234a8.5,8.5,0,0,0-4.9-1.307,9.1,9.1,0,0,0-5.081,1.371,6.21,6.21,0,0,0-2.708,3.8H465c.528,0,.794-.242.794-.73A3.767,3.767,0,0,0,463.871,356.273Z" transform="translate(3994.033 2638.766)" fill="#701ed7"/>
    <path id="Path_416" data-name="Path 416" d="M543.2,366.6a56.542,56.542,0,0,1-7.67.468q-5.964,0-9.155-3.059t-3.191-9.061V344.623H515.58v-7.844h5.426c1.48,0,2.19-.7,2.19-2.082V326.39h9.115v10.389H543.2v7.844H532.311v9.407a4.587,4.587,0,0,0,1.184,3.546,5.845,5.845,0,0,0,3.946,1.066,50.564,50.564,0,0,0,5.781-.346Z" transform="translate(3956.777 2651.609)" fill="#701ed7"/>
    <path id="Path_417" data-name="Path 417" d="M165.474,351.952a17.861,17.861,0,0,0-23.913,0,17.39,17.39,0,0,0,0,23.676,17.861,17.861,0,0,0,23.913,0l-12.938.192c-.922-.33-2.155-1.973-3.122-3.556a1.794,1.794,0,0,1-.587-.178,1.756,1.756,0,0,1-.927-1.554V356.441a1.756,1.756,0,0,1,2.738-1.48l9.993,6.674a7.113,7.113,0,0,0-1.781-3.26c-1.361-1.42,6.629.089,4.439.089s3.547,15.74,2.19,17.16a17.364,17.364,0,0,0,0-23.671Z" transform="translate(4151.787 2638.766)" fill="#fff"/>
    <path id="Path_418" data-name="Path 418" d="M176.125,369.153c2.19,0-5.8-1.509-4.439-.089a7.113,7.113,0,0,1,1.786,3.26l.577.385a1.761,1.761,0,0,1,0,2.93l-.434.291a7.2,7.2,0,0,1-1.924,3.946,7.044,7.044,0,0,1-5.327,2.131,8.933,8.933,0,0,1-1.657-.153l-1.223.814a1.76,1.76,0,0,1-.987.3,1.408,1.408,0,0,1-.247-.03c.987,1.588,2.2,3.226,3.122,3.556l12.938-.192C179.672,384.893,173.935,369.153,176.125,369.153Z" transform="translate(4138.811 2628.076)" fill="#fff"/>
  </g>
</svg>
