<svg id="icons8-imdb" xmlns="http://www.w3.org/2000/svg" width="37" height="18" viewBox="0 0 37 18">
  <path id="Path_269" data-name="Path 269" d="M33.917,13H3.083A3.051,3.051,0,0,0,0,16V28a3.051,3.051,0,0,0,3.083,3H33.917A3.051,3.051,0,0,0,37,28V16A3.051,3.051,0,0,0,33.917,13Z" transform="translate(0 -13)" fill="#ffc107"/>
  <path id="Path_270" data-name="Path 270" d="M23.4,18H20.545v9.6H23.4a4.652,4.652,0,0,0,2.543-.513,1.543,1.543,0,0,0,.693-1.319V19.978a1.718,1.718,0,0,0-.693-1.465C25.323,18.147,25.092,18,23.4,18Zm.539,7.547c0,.44-.539.44-1,.44V19.465c.462,0,1,0,1,.44ZM27.789,18v9.745h2.158s.154-.659.308-.513a17.467,17.467,0,0,0,1.7.44,2.58,2.58,0,0,0,1.156-.147.927.927,0,0,0,.539-.953V20.858A1.489,1.489,0,0,0,32.1,19.539a3.225,3.225,0,0,0-1.7.659V18Zm2.774,3.077c0-.293,0-.44.308-.44.154,0,.308.147.308.44v4.836c0,.293,0,.44-.308.44-.154,0-.308-.147-.308-.44ZM19.235,27.745V18h-3.39l-.616,4.616L14.381,18H11.3v9.745h2.235V22.323l1,5.422h1.541l1-5.422v5.422ZM7.6,18H9.989v9.745H7.6Z" transform="translate(-1.737 -14.143)"/>
</svg>
