<svg xmlns="http://www.w3.org/2000/svg" width="15.598" height="18.272" viewBox="0 0 15.598 18.272">
  <path id="icons8-thumbs-up" d="M20.478,22.272H12.011A4.015,4.015,0,0,1,8,18.261V14.072a3.968,3.968,0,0,1,.752-2.353l4.993-6.866A1.654,1.654,0,0,1,15.13,4a1.9,1.9,0,0,1,1.783,2.05,2.284,2.284,0,0,1-.217.939c-.025.062-.052.127-.078.2-.167.468-1.05,2.462-1.513,3.5,1.371,0,4.41.01,5.565.044h0a1.864,1.864,0,0,1,2.036,1.693,7.394,7.394,0,0,1-.088.95,1.877,1.877,0,0,1,.979,1.636,2,2,0,0,1-.59,1.393,1.754,1.754,0,0,1,.59,1.325,2.034,2.034,0,0,1-1.057,1.711,2.63,2.63,0,0,1,.166.918A2.168,2.168,0,0,1,20.478,22.272Z" transform="translate(-8 -4)" fill="#fff"/>
</svg>
