<svg id="icons8-link_1_" data-name="icons8-link (1)" xmlns="http://www.w3.org/2000/svg" width="19.215" height="19.214" viewBox="0 0 19.215 19.214">
  <path id="Path_280" data-name="Path 280" d="M24.491,19,19,24.491" transform="translate(-12.138 -12.138)" fill="none" stroke="#fff" stroke-linecap="round" stroke-miterlimit="10" stroke-width="2"/>
  <path id="Path_281" data-name="Path 281" d="M12.664,17.148a2.265,2.265,0,0,1-.637,1.284L9.739,20.721A2.288,2.288,0,0,1,6.5,17.485L8.791,15.2a2.269,2.269,0,0,1,1.284-.637l1.644-1.644A4.12,4.12,0,0,0,7.5,13.9L5.209,16.191a4.118,4.118,0,0,0,5.824,5.824l2.288-2.288a4.12,4.12,0,0,0,.987-4.223Zm9.351-11.94h0a4.124,4.124,0,0,0-5.825,0L13.9,7.5a4.12,4.12,0,0,0-.987,4.223l1.644-1.644A2.265,2.265,0,0,1,15.2,8.791L17.484,6.5a2.288,2.288,0,0,1,3.237,3.236l-2.288,2.288a2.269,2.269,0,0,1-1.285.637L15.5,14.308a4.1,4.1,0,0,0,4.223-.987l2.288-2.288A4.123,4.123,0,0,0,22.015,5.209Z" transform="translate(-4.004 -4.005)" fill="#fff"/>
</svg>
