<svg id="icons8-mute" xmlns="http://www.w3.org/2000/svg" width="18.707" height="15" viewBox="0 0 18.707 15">
  <path id="Path_282" data-name="Path 282" d="M32,20l4.282,4.282m0-4.282L32,24.282" transform="translate(-18.282 -14.641)" fill="none" stroke="#fff" stroke-linecap="round" stroke-miterlimit="10" stroke-width="1"/>
  <path id="Path_283" data-name="Path 283" d="M2.979,12.814V8.207a1.725,1.725,0,0,1,.2-.78H1.262A1.194,1.194,0,0,0-.04,8.464v4.093a1.194,1.194,0,0,0,1.3,1.037H3.18A1.73,1.73,0,0,1,2.979,12.814Zm7.343,5.2a1.181,1.181,0,0,0,1.212-1.254V4.142a1.122,1.122,0,0,0-1.2-1.131,1.8,1.8,0,0,0-1.116.414L4.235,7.381a1.062,1.062,0,0,0-.4.826v4.607a1.045,1.045,0,0,0,.377.8l4.975,3.951A1.794,1.794,0,0,0,10.322,18.011Z" transform="translate(0.04 -3.011)" fill="#fff"/>
</svg>
