<svg xmlns="http://www.w3.org/2000/svg" width="18" height="18" viewBox="0 0 18 18">
  <path id="icons8-phone" d="M20.023,15.488a15.077,15.077,0,0,1-1.924-.14,14.67,14.67,0,0,1-1.653-.425,1.017,1.017,0,0,0-1.019.253l-2.217,2.2a15.376,15.376,0,0,1-3.8-2.792,15.376,15.376,0,0,1-2.792-3.8l2.2-2.218a1.017,1.017,0,0,0,.253-1.019A14.6,14.6,0,0,1,8.653,5.9a15.067,15.067,0,0,1-.141-1.924A1,1,0,0,0,7.51,3H4A.992.992,0,0,0,3,4,17.179,17.179,0,0,0,7.966,16.034,17.179,17.179,0,0,0,20,21a.992.992,0,0,0,1-1V16.49A1,1,0,0,0,20.023,15.488Z" transform="translate(-3 -3)" fill="#fff"/>
</svg>
