<svg id="Group_309" data-name="Group 309" xmlns="http://www.w3.org/2000/svg" width="15.831" height="15.831" viewBox="0 0 15.831 15.831">
  <path id="Path_273" data-name="Path 273" d="M14.273,30.716l5.07.15V24.406H16.6ZM8.8,25,7,27.159H8.079V28.6H9.518V27.159H10.6Z" transform="translate(-5.561 -17.085)" fill="#fff"/>
  <path id="Path_274" data-name="Path 274" d="M10.915,15.592l-2.159-1.8v1.079H5.518l1.439,1.439h1.8v1.079ZM11.275,3h-7.2A1.06,1.06,0,0,0,3,4.079v7.2a1.06,1.06,0,0,0,1.079,1.079H4.1l1.583-1.9L5.8,10.32c-.109.042-.181.067-.2.073l-.228-.683A8.715,8.715,0,0,0,7.343,8.684,7.369,7.369,0,0,1,5.922,6.95l.631-.345A6.915,6.915,0,0,0,7.918,8.227,3.368,3.368,0,0,0,9.089,6.238H4.8v-.72H7.677V4.8H8.4v.72h2.518v.72h-1.1A3.953,3.953,0,0,1,8.5,8.68a5.723,5.723,0,0,0,.892.508,1.788,1.788,0,0,1,1.168-.431h1.8V4.079A1.06,1.06,0,0,0,11.275,3Z" transform="translate(-3 -3)" fill="#fff"/>
  <path id="Path_275" data-name="Path 275" d="M12.577,21l.345.414,1.583,1.9h.383v-1.8a1.813,1.813,0,0,1,.18-.781,6.578,6.578,0,0,1-1.012-.615A8.814,8.814,0,0,1,12.577,21Zm11.306-.564h-7.2a1.06,1.06,0,0,0-1.079,1.079v2.9L17.507,26l.663.553-.663.553-1.9,1.583v.023a1.06,1.06,0,0,0,1.079,1.079h7.2a1.06,1.06,0,0,0,1.079-1.079v-7.2A1.06,1.06,0,0,0,23.883,20.435Zm-2.231,6.908-.4-1.151H19.349l-.4,1.151h-.9l1.871-4.965h.756l1.871,4.965Z" transform="translate(-9.131 -13.958)" fill="#fff"/>
  <text id="ა" transform="translate(9.916 12.915)" fill="#4d1a8f" font-size="6" font-family="HelveticaNeueLTGEO-55Roman, Helvetica Neue LT GEO"><tspan x="0" y="0">ა</tspan></text>
</svg>
