<?xml version="1.0" standalone="no"?>
<!DOCTYPE svg PUBLIC "-//W3C//DTD SVG 20010904//EN"
 "http://www.w3.org/TR/2001/REC-SVG-20010904/DTD/svg10.dtd">
<svg version="1.0" xmlns="http://www.w3.org/2000/svg"
 width="512.000000pt" height="512.000000pt" viewBox="0 0 512.000000 512.000000"
 preserveAspectRatio="xMidYMid meet">

<g transform="translate(0.000000,512.000000) scale(0.100000,-0.100000)"
fill="#bfbfbf4d" stroke="none">
<path d="M2320 4984 c-739 -88 -1346 -445 -1757 -1031 -209 -300 -346 -640
-410 -1018 -26 -158 -26 -592 0 -750 88 -525 318 -977 687 -1346 363 -363 833
-603 1340 -684 141 -23 488 -31 633 -16 314 34 636 133 907 281 706 384 1175
1086 1261 1887 15 145 7 492 -16 633 -118 740 -576 1393 -1230 1752 -241 132
-488 219 -770 269 -97 17 -168 22 -365 24 -135 2 -261 1 -280 -1z m345 -849
c319 -56 570 -278 657 -582 29 -101 31 -293 4 -392 -98 -358 -422 -601 -801
-601 -431 0 -775 307 -819 730 -25 237 96 516 289 670 193 154 433 216 670
175z m510 -1868 c377 -102 666 -388 760 -752 22 -88 38 -283 26 -336 -14 -65
-70 -110 -173 -143 -175 -54 -391 -66 -1248 -66 -852 0 -1081 14 -1237 71 -80
30 -138 89 -147 149 -9 64 9 250 34 345 101 378 431 674 837 749 62 12 175 14
563 12 l485 -2 100 -27z"/>
</g>
</svg>
